# AST/ASF file generated using VICON BodyLanguage
# -----------------------------------------------
:version 1.10
:name VICON
:units
  mass 1.0
  length 0.45
  angle deg
:documentation
   .ast/.asf automatically generated from VICON data using
   VICON BodyBuilder and BodyLanguage model FoxedUp or BRILLIANT.MOD
:root
   order TX TY TZ RX RY RZ
   axis XYZ
   position 0 0 0  
   orientation 0 0 0 
:bonedata
  begin
     id 1 
     name lhipjoint
     direction 0.528046 -0.759594 0.379717 
     length 2.39752 
     axis 0 0 0  XYZ
  end
  begin
     id 2 
     name lfemur
     direction 0.34202 -0.939693 0  
     length 7.31175  
     axis 0 0 20  XYZ
    dof rx ry rz
    limits (-160.0 20.0)
           (-70.0 70.0)
           (-60.0 70.0)
  end
  begin
     id 3 
     name ltibia
     direction 0.34202 -0.939693 0   
     length 7.52482   
     axis 0 0 20   XYZ
    dof rx
    limits (-10.0 170.0)
  end
  begin
     id 4 
     name lfoot
     direction 0.0675379 -0.185559 0.980309   
     length 2.00961   
     axis -90 7.62852e-016 20   XYZ
    dof rx rz
    limits (-45.0 90.0)
           (-70.0 20.0)
  end
  begin
     id 5 
     name ltoes
     direction 1.5352e-011 -4.22286e-011 1   
     length 1.01383   
     axis -90 7.62852e-016 20   XYZ
    dof rx
    limits (-90.0 20.0)
  end
  begin
     id 6 
     name rhipjoint
     direction -0.510274 -0.769251 0.384544   
     length 2.36742  
     axis 0 0 0  XYZ 
  end
  begin
     id 7 
     name rfemur
     direction -0.34202 -0.939693 0   
     length 7.45325   
     axis 0 0 -20   XYZ
    dof rx ry rz
    limits (-160.0 20.0)
           (-70.0 70.0)
           (-70.0 60.0)
  end
  begin
     id 8 
     name rtibia
     direction -0.34202 -0.939693 0   
     length 7.49587   
     axis 0 0 -20   XYZ
    dof rx
    limits (-10.0 170.0)
 end
 begin
     id 9 
     name rfoot
     direction -0.106475 -0.292536 0.950308   
     length 2.20898  
     axis -90 -7.62852e-016 -20   XYZ
    dof rx rz
    limits (-45.0 90.0)
           (-20.0 70.0)
  end
  begin
     id 10 
     name rtoes
     direction -1.53597e-011 -4.22023e-011 1   
     length 1.10065   
     axis -90 -7.62852e-016 -20   XYZ
    dof rx
    limits (-90.0 20.0)
  end
  begin
     id 11 
     name lowerback
     direction 0.0260024 0.998026 -0.0571652   
     length 2.11214   
     axis 0 0 0   XYZ
    dof rx ry rz
    limits (-20.0 45.0)
           (-30.0 30.0)
           (-30.0 30.0)
  end
  begin
     id 12 
     name upperback
     direction 0.0216202 0.999542 -0.0211766   
     length 2.11689   
     axis 0 0 0   XYZ
    dof rx ry rz
    limits (-20.0 45.0)
           (-30.0 30.0)
           (-30.0 30.0)
  end
  begin
     id 13 
     name thorax
     direction 0.00883312 0.999944 0.00589057   
     length 2.11821   
     axis 0 0 0   XYZ
    dof rx ry rz
    limits (-20.0 45.0)
           (-30.0 30.0)
           (-30.0 30.0)
  end
  begin
     id 14 
     name lowerneck
     direction -0.059386 0.994433 0.0870401   
     length 1.81176   
     axis 0 0 0   XYZ
    dof rx ry rz
    limits (-20.0 45.0)
           (-30.0 30.0)
           (-30.0 30.0)
  end
  begin
     id 15 
     name upperneck
     direction 0.0506457 0.97328 -0.223967   
     length 1.82382   
     axis 0 0 0   XYZ
    dof rx ry rz
    limits (-20.0 45.0)
           (-30.0 30.0)
           (-30.0 30.0)
  end
  begin
     id 16
     name head
     direction 0.0205902 0.996147 -0.0852487  
     length 1.84805  
     axis 0 0 0   XYZ
    dof rx ry rz
    limits (-20.0 45.0)
           (-30.0 30.0)
           (-30.0 30.0)
  end
  begin
     id 17 
     name lclavicle
     direction 0.949493 0.303881 -0.0782325  
     length 3.60584  
     axis 0 0 0   XYZ
    dof ry rz
    limits (-20.0 10.0)
           (0.0 20.0)
  end
  begin
     id 18 
     name lhumerus
     direction 1 -4.48965e-011 1.48782e-027   
     length 4.95681   
     axis 180 -30 -90   XYZ
    dof rx ry rz
    limits (-60.0 90.0)
           (-90.0 90.0)
           (-90.0 90.0)
  end
  begin
     id 19
     name lradius
     direction 1 -4.48952e-011 2.06528e-027   
     length 3.40915   
     axis 180 -30 -90   XYZ
    dof rx
    limits (-10.0 170.0)
  end
  begin
     id 20
     name lwrist
     direction 1 -4.48964e-011 1.28021e-027   
     length 1.70457   
     axis -1.61767e-015 90 90   XYZ
    dof ry
    limits (-180.0 0.0)
 end
  begin
     id 21 
     name lhand
     direction 1 -4.49094e-011 2.54887e-027   
     length 0.616403   
     axis -1.63363e-015 90 90   XYZ
    dof rx rz
    limits (-90.0 90.0)
           (-45.0 45.0)
  end
  begin
     id 22 
     name lfingers
     direction 1 -4.49002e-011 5.11407e-027   
     length 0.49696   
     axis -3.26723e-015 90 90   XYZ
    dof rx
    limits (0.0 90.0)
  end
  begin
     id 23
     name lthumb
     direction 0.707107 -6.34998e-011 0.707107   
     length 0.713539   
     axis -90 45 -2.25915e-014   XYZ
    dof rx rz
    limits (-45.0 45.0)
           (-45.0 45.0)
  end
  begin
     id 24 
     name rclavicle
     direction -0.937751 0.334612 -0.0930482   
     length 3.46287  
     axis 0 0 0   XYZ 
    dof ry rz
    limits (-10.0 20.0)
           (-20.0 0.0)
  end
  begin
     id 25 
     name rhumerus
     direction -1 -4.48962e-011 3.59972e-027  
     length 5.352   
     axis 180 30 90   XYZ
    dof rx ry rz
    limits (-90.0 60.0)
           (-90.0 90.0)
           (-90.0 90.0)
  end
  begin
     id 26 
     name rradius
     direction -1 -4.48987e-011 -3.76925e-027   
     length 3.43721   
     axis 180 30 90   XYZ
    dof rx
    limits (-10.0 170.0)
  end
  begin
     id 27 
     name rwrist
     direction -1 -4.48943e-011 1.28112e-027   
     length 1.7186   
     axis -1.61767e-015 -90 -90   XYZ
    dof ry
    limits (-180.0 0.0)
  end
  begin
     id 28
     name rhand
     direction -1 -4.49027e-011 2.55483e-027   
     length 0.72009   
     axis -1.63363e-015 -90 -90   XYZ
    dof rx rz
    limits (-90.0 90.0)
           (-45.0 45.0)
  end
  begin
     id 29
     name rfingers
     direction -1 -4.48827e-011 5.14506e-027   
     length 0.580555   
     axis -3.26723e-015 -90 -90   XYZ
    dof rx
    limits (0.0 90.0)
  end
  begin
     id 30
     name rthumb
     direction -0.707107 -6.34936e-011 0.707107   
     length 0.833564   
     axis -90 -45 2.25915e-014   XYZ
    dof rx rz
    limits (-45.0 45.0)
           (-45.0 45.0)
  end
:hierarchy
  begin
    root lhipjoint rhipjoint lowerback
    lhipjoint lfemur
    lfemur ltibia
    ltibia lfoot
    lfoot ltoes
    rhipjoint rfemur
    rfemur rtibia
    rtibia rfoot
    rfoot rtoes
    lowerback upperback
    upperback thorax
    thorax lowerneck lclavicle rclavicle
    lowerneck upperneck
    upperneck head
    lclavicle lhumerus
    lhumerus lradius
    lradius lwrist
    lwrist lhand lthumb
    lhand lfingers
    rclavicle rhumerus
    rhumerus rradius
    rradius rwrist
    rwrist rhand rthumb
    rhand rfingers
  end

#!OML:ASF H:\Terrain\Patient Classification 1\Terrain2\Thursday\justin.ASF
:FULLY-SPECIFIED
:DEGREES
787
root 29.3742 17.8869 11.966 -163.302 66.6731 -160.232
lowerback 7.31338 0.854065 8.84651
upperback 2.95586 2.10585 4.66174
thorax -0.899427 1.20629 -0.284708
lowerneck -15.9656 0.566767 -7.1219
upperneck 32.2148 5.08661 -1.74218
head 13.486 1.58807 1.47063
rclavicle -2.83268e-014 -4.21423e-014
rhumerus -25.6877 -6.26087 -80.6388
rradius 27.9358
rwrist -10.1965
rhand -19.1756 10.3077
rfingers 7.12502
rthumb 7.13563 -19.552
lclavicle -2.83268e-014 -4.21423e-014
lhumerus -39.1429 5.65822 84.0321
lradius 37.8859
lwrist -0.686788
lhand -20.3704 14.1239
lfingers 7.12502
lthumb 5.9822 44.0194
rfemur -4.38408 -7.4278 28.1462
rtibia 28.2622
rfoot -20.2478 2.29873
rtoes 11.7332
lfemur -14.3055 4.56243 -10.7053
ltibia 40.3497
lfoot -19.7433 -6.82439
ltoes 1.68849
788
root 29.3808 17.8932 11.983 -163.755 66.1667 -160.72
lowerback 7.32134 0.916318 8.77857
upperback 2.96392 2.19255 4.75299
thorax -0.896338 1.25169 -0.159205
lowerneck -15.7103 0.599659 -7.31055
upperneck 31.8182 5.11086 -1.71446
head 13.2551 1.59781 1.5048
rclavicle -3.99557e-014 -7.95139e-015
rhumerus -25.7187 -6.5792 -80.4894
rradius 28.0556
rwrist -9.69709
rhand -19.0762 10.6146
rfingers 7.12502
rthumb 7.23163 -19.2419
lclavicle -3.99557e-014 -7.95139e-015
lhumerus -38.9672 6.43497 84.0267
lradius 37.1543
lwrist -2.49532
lhand -20.4724 13.7356
lfingers 7.12502
lthumb 5.88372 43.6339
rfemur -4.38063 -7.57046 28.1736
rtibia 28.2427
rfoot -20.3259 2.02925
rtoes 12.0184
lfemur -14.6472 5.86366 -10.7389
ltibia 40.6304
lfoot -20.0939 -5.41636
ltoes -2.10847
789
root 29.3855 17.9136 11.9937 -165.924 65.9348 -163.235
lowerback 7.18109 1.08589 7.97851
upperback 2.9815 2.31656 4.50614
thorax -0.814395 1.30251 0.0194705
lowerneck -15.7788 0.637616 -7.21764
upperneck 31.7514 5.18734 -1.83908
head 13.2465 1.62897 1.453
rclavicle -3.07122e-014 -1.82882e-014
rhumerus -25.6497 -6.62544 -80.6201
rradius 28.2301
rwrist -10.2958
rhand -19.6099 10.8364
rfingers 7.12502
rthumb 6.71645 -19.0371
lclavicle -3.07122e-014 -1.82882e-014
lhumerus -38.7875 6.4713 84.2555
lradius 36.6252
lwrist -3.38786
lhand -21.4315 13.5547
lfingers 7.12502
lthumb 4.95767 43.4767
rfemur -4.61395 -7.93329 27.1561
rtibia 28.3992
rfoot -20.5792 2.19857
rtoes 11.9455
lfemur -15.0232 7.32695 -11.8672
ltibia 40.7335
lfoot -20.2205 -3.80888
ltoes -4.71353
790
root 29.3851 17.939 12.0027 -168.628 65.7202 -166.626
lowerback 6.84454 1.22681 6.71068
upperback 2.91396 2.34903 4.19418
thorax -0.735305 1.29779 0.40163
lowerneck -16.11 0.74916 -6.82746
upperneck 31.9537 5.46727 -2.30405
head 13.4276 1.72805 1.26055
rclavicle 4.27387e-015 -3.97569e-015
rhumerus -25.5394 -6.54531 -80.7625
rradius 28.4142
rwrist -10.7754
rhand -19.9431 11.3151
rfingers 7.12502
rthumb 6.39472 -18.5684
lclavicle 4.27387e-015 -3.97569e-015
lhumerus -38.7325 6.40861 84.6189
lradius 36.3183
lwrist -3.38793
lhand -21.4588 13.9583
lfingers 7.12502
lthumb 4.93136 43.8809
rfemur -5.14448 -8.4084 25.7492
rtibia 28.524
rfoot -20.6882 2.30866
rtoes 11.8536
lfemur -15.6335 8.43193 -13.4722
ltibia 40.8043
lfoot -20.393 -2.17718
ltoes -4.74472
791
root 29.3898 17.9521 12.0185 -170.164 65.2467 -168.568
lowerback 6.64981 1.30119 5.85768
upperback 2.84556 2.36687 4.15681
thorax -0.731569 1.29467 0.837869
lowerneck -16.2335 0.791823 -6.65763
upperneck 32.0466 5.65463 -2.67838
head 13.5141 1.78157 1.12056
rclavicle -4.22417e-014 5.48646e-014
rhumerus -25.4815 -6.5985 -80.6611
rradius 28.5208
rwrist -10.685
rhand -20.4819 11.8493
rfingers 7.12502
rthumb 5.87459 -18.0493
lclavicle -4.22417e-014 5.48646e-014
lhumerus -38.789 6.54143 84.9481
lradius 36.0663
lwrist -3.19469
lhand -18.5327 14.6015
lfingers 7.12502
lthumb 7.75622 44.4392
rfemur -5.41492 -8.8985 25.0397
rtibia 28.5332
rfoot -20.845 2.12184
rtoes 11.8453
lfemur -16.0896 9.341 -14.4017
ltibia 40.9529
lfoot -20.259 -1.83574
ltoes 10.5236
792
root 29.3994 17.95 12.032 -169.404 64.5424 -167.569
lowerback 6.73494 1.2908 6.39412
upperback 2.8811 2.41577 4.37193
thorax -0.727622 1.33085 0.758328
lowerneck -16.1221 0.839809 -6.48754
upperneck 31.8754 5.74026 -2.93455
head 13.431 1.81712 1.00152
rclavicle -2.36554e-014 2.14687e-014
rhumerus -25.4428 -6.67941 -80.6395
rradius 28.5936
rwrist -10.6154
rhand -21.0639 12.1112
rfingers 7.12502
rthumb 5.31269 -17.8022
lclavicle -2.36554e-014 2.14687e-014
lhumerus -38.7848 6.62806 84.9764
lradius 35.6807
lwrist -3.5649
lhand -20.2975 13.6437
lfingers 7.12502
lthumb 6.05256 43.5372
rfemur -5.19487 -9.36125 25.6886
rtibia 28.4649
rfoot -21.0793 1.57004
rtoes 10.4998
lfemur -16.2075 10.5466 -13.9153
ltibia 41.2082
lfoot -20.177 1.08796
ltoes 0.775199
793
root 29.4056 17.9439 12.0425 -168.371 63.7864 -166.305
lowerback 6.7723 1.22522 7.16464
upperback 2.87076 2.40693 4.57845
thorax -0.73591 1.33954 0.546087
lowerneck -15.9148 0.943727 -6.19368
upperneck 31.7046 5.88545 -3.24927
head 13.3322 1.8896 0.847179
rclavicle 4.11484e-014 6.67916e-014
rhumerus -25.4779 -6.38862 -80.7677
rradius 28.6942
rwrist -10.6895
rhand -21.3209 12.1183
rfingers 7.12502
rthumb 5.06451 -17.8012
lclavicle 4.11484e-014 6.67916e-014
lhumerus -38.7487 6.6513 84.8977
lradius 35.1719
lwrist -3.84267
lhand -20.5372 13.6619
lfingers 7.12502
lthumb 5.82123 43.562
rfemur -4.99368 -9.84741 26.5091
rtibia 28.2724
rfoot -21.1116 0.887585
rtoes 8.24013
lfemur -16.3909 12.0309 -13.2431
ltibia 41.5169
lfoot -19.748 4.31655
ltoes -13.172
794
root 29.4079 17.9468 12.0517 -169.386 63.1813 -167.615
lowerback 6.60046 1.24752 6.86204
upperback 2.79945 2.39017 4.45255
thorax -0.722192 1.32359 0.587596
lowerneck -15.9332 0.981215 -6.01746
upperneck 31.8078 5.96652 -3.37803
head 13.3901 1.93192 0.783145
rclavicle 2.5842e-014 5.56597e-015
rhumerus -25.4981 -6.20961 -80.8769
rradius 28.7881
rwrist -10.4289
rhand -21.4937 12.2648
rfingers 7.12502
rthumb 4.89761 -17.6586
lclavicle 2.5842e-014 5.56597e-015
lhumerus -38.7178 6.48468 85.0319
lradius 34.8715
lwrist -3.46079
lhand -20.3259 14.5136
lfingers 7.12502
lthumb 6.02514 44.4079
rfemur -5.07367 -10.4078 26.0614
rtibia 28.0138
rfoot -20.9958 0.530531
rtoes 6.9434
lfemur -16.7828 13.5554 -13.9885
ltibia 41.7649
lfoot -18.8183 7.54021
ltoes -24.47
795
root 29.416 17.9636 12.0593 -170.799 62.6366 -169.202
lowerback 6.59278 1.27511 6.32514
upperback 2.8161 2.38037 4.34028
thorax -0.718771 1.3119 0.769119
lowerneck -16.1704 1.00717 -6.10043
upperneck 32.0629 6.07698 -3.29724
head 13.5454 1.97319 0.855359
rclavicle 6.95746e-015 4.53229e-014
rhumerus -25.356 -6.37374 -80.833
rradius 28.6881
rwrist -9.77919
rhand -21.2794 12.7363
rfingers 7.12502
rthumb 5.10454 -17.1822
lclavicle 6.95746e-015 4.53229e-014
lhumerus -38.8273 6.63622 85.1866
lradius 34.8341
lwrist -3.4134
lhand -20.7815 15.0977
lfingers 7.12502
lthumb 5.58533 45.0041
rfemur -5.00252 -10.6688 25.416
rtibia 27.9084
rfoot -21.0087 0.380972
rtoes 7.46441
lfemur -17.0241 14.8315 -14.8549
ltibia 41.8807
lfoot -17.6183 10.0966
ltoes -31.0139
796
root 29.4276 17.9754 12.0787 -170.958 62.0945 -169.244
lowerback 6.74239 1.24674 6.1456
upperback 2.85292 2.36049 4.54494
thorax -0.781242 1.30493 1.07748
lowerneck -16.3611 1.12468 -6.15988
upperneck 32.262 6.37174 -3.39045
head 13.6755 2.07854 0.884287
rclavicle 2.68359e-014 4.37326e-014
rhumerus -25.1112 -6.07291 -80.7914
rradius 28.479
rwrist -9.58922
rhand -21.3183 13.1185
rfingers 7.12502
rthumb 5.06701 -16.8009
lclavicle 2.68359e-014 4.37326e-014
lhumerus -38.9714 7.24896 85.2078
lradius 34.7037
lwrist -3.59579
lhand -20.9908 14.832
lfingers 7.12502
lthumb 5.38325 44.7436
rfemur -4.87343 -10.0354 25.6803
rtibia 27.9608
rfoot -21.1288 -0.280744
rtoes 9.66046
lfemur -17.2232 16.1339 -14.8088
ltibia 41.8533
lfoot -16.1223 11.8864
ltoes -35.5669
797
root 29.4382 17.9625 12.0989 -170.798 61.5871 -169.015
lowerback 6.77841 1.20869 6.08982
upperback 2.87051 2.32196 4.69738
thorax -0.793071 1.28928 1.26809
lowerneck -16.426 1.3099 -5.85052
upperneck 32.2274 6.67461 -3.71418
head 13.6974 2.20735 0.755252
rclavicle -6.57977e-014 7.07673e-014
rhumerus -24.8955 -5.60032 -80.8914
rradius 28.3544
rwrist -9.26454
rhand -20.9068 13.425
rfingers 7.12502
rthumb 5.46431 -16.4846
lclavicle -6.57977e-014 7.07673e-014
lhumerus -39.1118 7.92923 85.0131
lradius 34.6246
lwrist -3.72894
lhand -20.6254 15.0113
lfingers 7.12502
lthumb 5.73606 44.9136
rfemur -4.83207 -9.5537 26.0794
rtibia 27.9845
rfoot -21.102 -1.0421
rtoes 11.0369
lfemur -17.3934 17.7679 -14.7265
ltibia 41.7683
lfoot -14.1484 13.6536
ltoes -40.5999
798
root 29.4555 17.9526 12.0993 -171.564 61.0138 -169.717
lowerback 6.69579 1.1513 5.87636
upperback 2.95622 2.21405 4.60901
thorax -0.665369 1.23676 1.30644
lowerneck -16.2258 1.45152 -5.63876
upperneck 31.9149 6.81687 -3.89424
head 13.5314 2.28645 0.663779
rclavicle -1.98785e-016 1.82882e-014
rhumerus -24.6555 -5.95371 -80.8822
rradius 28.0555
rwrist -7.73441
rhand -19.2538 13.5982
rfingers 7.12502
rthumb 7.0602 -16.264
lclavicle -1.98785e-016 1.82882e-014
lhumerus -39.2917 8.38688 84.7817
lradius 34.7429
lwrist -3.60367
lhand -20.1608 16.021
lfingers 7.12502
lthumb 6.18462 45.9107
rfemur -4.61298 -10.289 25.7702
rtibia 27.9982
rfoot -21.1512 -1.20246
rtoes 9.36783
lfemur -17.2394 18.9609 -15.1261
ltibia 41.6726
lfoot -12.5111 15.0192
ltoes -42.8587
799
root 29.4735 17.9551 12.0964 -172.221 60.3579 -170.304
lowerback 6.58361 1.15254 5.82117
upperback 3.02873 2.19359 4.51708
thorax -0.526731 1.22931 1.24798
lowerneck -15.8987 1.53471 -5.52916
upperneck 31.6299 6.9028 -4.04395
head 13.3484 2.34038 0.591618
rclavicle 1.41733e-013 1.19271e-014
rhumerus -24.5081 -6.39962 -80.8676
rradius 27.8868
rwrist -6.61303
rhand -18.5084 13.6671
rfingers 7.12502
rthumb 7.77966 -16.1698
lclavicle 1.41733e-013 1.19271e-014
lhumerus -39.2159 8.37537 84.745
lradius 34.6367
lwrist -2.90807
lhand -19.7987 16.7401
lfingers 7.12502
lthumb 6.5341 46.6194
rfemur -4.44147 -11.0244 25.5241
rtibia 28.0883
rfoot -21.3206 -1.41015
rtoes 7.46151
lfemur -17.0993 19.7603 -15.4211
ltibia 41.5542
lfoot -11.2144 15.8444
ltoes -43.3336
800
root 29.4861 17.953 12.0984 -172.146 59.6702 -170.154
lowerback 6.52117 1.24416 6.14493
upperback 3.03267 2.33309 4.5101
thorax -0.471458 1.30476 1.05447
lowerneck -15.8505 1.57885 -5.17265
upperneck 31.6049 6.98708 -4.36494
head 13.3555 2.38702 0.420728
rclavicle 1.10524e-013 1.27222e-014
rhumerus -24.5373 -6.16547 -81.0346
rradius 28.0933
rwrist -7.10497
rhand -18.5975 14.1022
rfingers 7.12502
rthumb 7.69367 -15.7379
lclavicle 1.10524e-013 1.27222e-014
lhumerus -38.9833 7.96495 84.8202
lradius 34.2458
lwrist -2.02341
lhand -18.9779 16.7215
lfingers 7.12502
lthumb 7.32644 46.5746
rfemur -4.38207 -11.1871 25.7675
rtibia 28.1368
rfoot -21.3445 -1.88921
rtoes 7.53976
lfemur -17.1613 20.8056 -15.3744
ltibia 41.4114
lfoot -9.87075 16.3355
ltoes -44.0454
801
root 29.4971 17.9491 12.1032 -172.381 58.9317 -170.418
lowerback 6.44175 1.30918 6.2098
upperback 3.01179 2.41665 4.48443
thorax -0.442871 1.34736 0.988806
lowerneck -15.8098 1.63403 -4.89209
upperneck 31.4797 7.09 -4.68522
head 13.3199 2.434 0.264787
rclavicle 1.8487e-014 -6.36111e-015
rhumerus -24.5633 -5.42571 -81.2939
rradius 28.3204
rwrist -8.41289
rhand -18.1876 14.578
rfingers 7.12502
rthumb 8.08929 -15.2472
lclavicle 1.8487e-014 -6.36111e-015
lhumerus -38.9866 7.67624 84.8328
lradius 33.9996
lwrist -1.6923
lhand -17.9642 16.3931
lfingers 7.12502
lthumb 8.30484 46.2099
rfemur -4.35882 -11.4022 25.8016
rtibia 28.134
rfoot -21.4026 -2.24837
rtoes 7.87153
lfemur -17.3178 21.8262 -15.5579
ltibia 41.2232
lfoot -8.82335 16.5483
ltoes -44.5722
